<?xml version="1.0" standalone="no"?><!DOCTYPE svg PUBLIC "-//W3C//DTD SVG 1.1//EN" "http://www.w3.org/Graphics/SVG/1.1/DTD/svg11.dtd"><svg t="1743148066431" class="icon" viewBox="0 0 1024 1024" version="1.1" xmlns="http://www.w3.org/2000/svg" p-id="3993" data-spm-anchor-id="a313x.search_index.0.i0.40213a8111JiNs" width="64" height="64" xmlns:xlink="http://www.w3.org/1999/xlink"><path d="M426.4 426.8h82.1v122h-82.1z" fill="#A9D8EE" p-id="3994"></path><path d="M517.6 894.5c-63.2 0-126.1-8.2-187.2-24.3H205.8c-15 0.1-29.3-6.3-39.1-17.6s-14.2-26.3-12.1-41.2l14.1-99.7c-22.7-37.1-36.1-95.5-39.9-174.2-10-181.9 108.1-346.2 283.8-394.6 38.6-9.8 78.4-14.7 118.2-14.5 117.3 0 215.4 36.7 283.6 106.4 68.2 69.7 106.6 174.7 105 291.6-0.3 56.8-12.8 112.9-36.7 164.4-79.4 165.9-237.5 203.5-365.1 203.7zM212.3 813h119.9c4.7 0 9.3 0.6 13.8 1.9 38.2 10.5 368.4 95.5 484.7-148 20.4-44.2 31.1-92.3 31.5-140.9 1.9-101.4-29.6-191-88.6-250.4-59-59.4-139-89.8-242.7-89.8-35-0.2-69.9 4-103.9 12.6-149.2 41.5-249.4 181.3-240.8 335.9 3.2 69.3 14.5 120.7 32.5 148.4 6.4 9.6 9.1 21.2 7.4 32.7L212.3 813z m0 0" fill="#2e2e2e" p-id="3995"></path><path d="M536.5 612.8l-13-34.4H412.4l-13.2 34.9c-3.2 9.7-7.5 19-13 27.7-4.3 5.2-11 7.9-17.8 7.3-7.1 0.2-14.1-2.6-19.1-7.6-5-4.4-7.9-10.7-8-17.4 0.1-3.9 0.7-7.7 1.9-11.5 1.3-4 3.2-9.6 6.1-16.6l70.1-177.6c1.9-5.2 4.4-11.3 7.1-19.1 2.3-6.3 5.3-12.2 9-17.8 3.2-4.8 7.4-8.7 12.4-11.5 17.3-10.3 39.6-5.3 51 11.3 3.2 4.6 5.9 9.5 8 14.7l8.4 21.2L586.8 593c5 9.3 8.2 19.5 9.6 30-0.1 6.7-2.9 13-7.8 17.6-5 5.1-11.9 7.9-19.1 7.8-3.9 0.1-7.7-0.7-11.3-2.3-3-1.5-5.7-3.6-7.8-6.3-2.8-3.8-5-8-6.7-12.4-3.3-5.4-4.7-10.4-7.2-14.6z m-109.6-76.4h81.5l-41.1-112.9-40.4 112.9z m211.6 78.1V399.1c-0.7-9 2-17.9 7.6-25 4.9-5.4 11.8-8.5 19.1-8.4 7.6-0.3 15 2.7 20.2 8.2 5.6 7.1 8.4 16.1 7.6 25.2v215.4c0.8 9.1-2 18.2-7.6 25.4-5.2 5.6-12.6 8.7-20.2 8.4-7.3 0-14.2-3-19.1-8.4-5.6-7.2-8.3-16.2-7.6-25.4z m0 0" fill="#2e2e2e" p-id="3996"></path></svg>